<?xml version="1.0" encoding="UTF-8" standalone="no"?>
<!-- Created with Inkscape (http://www.inkscape.org/) -->

<svg
   xmlns:dc="http://purl.org/dc/elements/1.1/"
   xmlns:cc="http://creativecommons.org/ns#"
   xmlns:rdf="http://www.w3.org/1999/02/22-rdf-syntax-ns#"
   xmlns:svg="http://www.w3.org/2000/svg"
   xmlns="http://www.w3.org/2000/svg"
   xmlns:sodipodi="http://sodipodi.sourceforge.net/DTD/sodipodi-0.dtd"
   xmlns:inkscape="http://www.inkscape.org/namespaces/inkscape"
   id="svg2"
   height="760.29663"
   width="1000"
   version="1.0"
   inkscape:version="0.48.2 r9819"
   sodipodi:docname="Vistara_logo.svg">
  <metadata
     id="metadata10">
    <rdf:RDF>
      <cc:Work
         rdf:about="">
        <dc:format>image/svg+xml</dc:format>
        <dc:type
           rdf:resource="http://purl.org/dc/dcmitype/StillImage" />
        <dc:title></dc:title>
      </cc:Work>
    </rdf:RDF>
  </metadata>
  <defs
     id="defs8" />
  <sodipodi:namedview
     pagecolor="#ffffff"
     bordercolor="#666666"
     borderopacity="1"
     objecttolerance="10"
     gridtolerance="10"
     guidetolerance="10"
     inkscape:pageopacity="0"
     inkscape:pageshadow="2"
     inkscape:window-width="1089"
     inkscape:window-height="1045"
     id="namedview6"
     showgrid="false"
     fit-margin-left="0.5"
     fit-margin-bottom="0.5"
     fit-margin-top="0.5"
     fit-margin-right="0.5"
     inkscape:zoom="0.29085352"
     inkscape:cx="497.84095"
     inkscape:cy="16.27075"
     inkscape:window-x="831"
     inkscape:window-y="-21"
     inkscape:window-maximized="0"
     inkscape:current-layer="svg2" />
  <path
     id="path2464"
     d="m 436.72508,602.79307 c -0.45215,0 -5.2967,1.45336 -10.75488,3.22969 -7.16993,2.32539 -10.36733,3.58497 -11.43313,4.55388 l -1.48566,1.32417 v 55.00172 55.03402 l 1.0981,4.2632 c 3.81104,14.92119 12.40203,24.3842 26.77418,29.51942 9.85057,3.52037 21.96193,4.81225 34.46085,3.64956 7.10534,-0.64594 12.7896,-1.61485 20.05642,-3.42348 6.81465,-1.71174 8.4941,-2.38998 8.94625,-3.81104 0.35527,-1.1304 -2.38997,-9.94747 -3.52037,-11.23935 -1.0335,-1.19498 -1.87322,-1.06579 -8.23572,1.0658 -9.17234,3.10051 -14.66282,4.06942 -22.80165,4.03712 -5.52278,-0.0323 -7.81587,-0.25837 -10.85178,-1.0658 -8.00965,-2.13159 -13.33864,-5.97493 -16.24537,-11.75609 -2.80984,-5.58737 -2.84213,-5.81345 -2.84213,-46.41073 l -0.0323,-37.07691 h 28.32443 28.32444 l 1.38876,-1.42106 c 1.35648,-1.32418 1.42107,-1.64715 1.42107,-5.55508 0,-3.64956 -0.12919,-4.2632 -1.16269,-5.45819 l -1.16269,-1.35647 -28.55051,-0.12919 -28.58281,-0.12918 v -15.24417 -15.21187 l -1.16269,-1.19498 c -0.64594,-0.64594 -1.55025,-1.19499 -1.97012,-1.19499 z M 315.45,629.47036 c -10.78718,0.0969 -21.28369,1.25958 -30.39143,3.55266 -17.24658,4.36009 -29.48713,13.8554 -33.52425,26.06365 -1.0335,3.1328 -1.25958,4.84454 -1.29188,8.94626 -0.0323,5.68426 0.61365,9.01085 2.68065,13.37094 4.61847,9.85057 15.24417,16.43915 32.07088,19.89492 6.3625,1.32418 11.49772,1.84093 29.45483,3.00362 19.63655,1.25958 26.4835,2.35768 32.84601,5.2644 6.10412,2.77754 8.4941,6.26561 8.84936,13.08027 0.32297,6.00724 -0.80742,8.75248 -5.61967,13.56473 -2.93902,2.93902 -4.61846,4.13401 -8.26802,5.94264 -20.41168,10.04435 -53.64525,6.3302 -83.22926,-9.26923 -4.97373,-2.64835 -5.23211,-2.71295 -6.49169,-2.03471 -1.35647,0.77513 -5.3613,7.4606 -5.81345,9.75368 -0.41986,2.03471 0.61364,3.1974 4.65076,5.23211 11.78839,5.94264 27.00026,10.56111 41.34011,12.56352 9.81827,1.38877 9.36611,1.38877 24.64257,1.22728 11.17475,-0.12919 15.30876,-0.35527 20.37939,-1.13039 21.67126,-3.35889 35.91421,-10.33503 43.11644,-21.08992 3.52036,-5.2644 4.48927,-8.4941 4.77995,-15.72862 0.16148,-4.68305 0.0323,-6.75006 -0.58135,-9.17233 -3.10051,-11.88528 -12.27284,-20.41168 -27.03255,-25.09474 -8.30032,-2.64835 -18.92602,-4.03712 -42.34132,-5.58737 -14.43674,-0.93661 -19.18439,-1.48566 -23.67367,-2.71295 -6.62087,-1.80863 -10.5611,-4.42468 -12.725,-8.39721 -1.51796,-2.80983 -1.45336,-9.5276 0.0969,-13.43553 1.58255,-4.03712 5.42589,-7.97735 10.10895,-10.43192 7.04074,-3.64956 14.59822,-5.03832 27.16174,-5.03832 17.89252,0.0646 34.46086,3.71415 49.73732,11.04556 3.55266,1.71173 6.81466,3.1005 7.26681,3.1005 1.1304,0 2.51917,-1.58255 4.81225,-5.52278 2.29309,-3.94023 2.42227,-5.19981 0.77513,-6.75006 -1.51796,-1.38877 -10.91637,-5.42589 -17.89252,-7.68668 -13.7262,-4.39238 -30.13306,-6.62087 -45.89398,-6.52398 z m 279.11032,1.67944 c -6.03953,0 -12.14365,0.19378 -15.27646,0.58134 -10.78718,1.35648 -22.60787,4.3278 -32.26466,8.10654 -5.84575,2.29308 -16.24537,7.23452 -17.34347,8.23573 -1.61485,1.45336 -1.09809,3.74644 2.35768,11.14245 1.29188,2.71294 2.06701,2.58375 12.7896,-2.71295 23.70596,-11.72379 44.5375,-15.17957 63.91568,-10.6257 13.98458,3.29429 23.15692,10.6903 26.70958,21.54207 0.87202,2.71295 1.55026,20.2179 0.77513,20.96073 -0.29067,0.29067 -2.32538,0.0323 -5.49048,-0.71053 -24.77177,-5.84575 -48.38085,-7.07304 -68.72793,-3.61726 -27.6139,4.68306 -42.40591,17.89251 -42.37361,37.81974 0,10.10894 2.84213,17.24657 9.36612,23.73826 7.49289,7.396 17.47265,11.49772 33.13668,13.53243 6.87925,0.90431 26.83877,0.61364 33.84721,-0.48446 14.08147,-2.19619 27.6139,-7.10533 36.81853,-13.37094 1.51796,-1.0012 2.97132,-1.84093 3.26199,-1.84093 0.32297,0 0.51676,1.74404 0.51676,4.81225 0,8.5587 0.22607,8.68788 13.7585,8.68788 11.43312,0 12.40203,-0.22608 13.30635,-3.26199 0.38756,-1.25958 0.48445,-12.88649 0.35526,-39.72526 -0.19378,-36.46327 -0.22607,-38.11041 -1.19498,-42.05064 -2.06701,-8.42951 -4.94144,-14.40444 -9.78598,-20.44397 -8.36491,-10.39962 -23.09233,-17.0851 -43.50401,-19.73345 -2.97132,-0.38756 -8.94625,-0.58134 -14.95349,-0.58134 z m 334.66109,0 c -6.23331,0.0323 -12.49892,0.32297 -16.21307,0.83972 -14.98579,2.03471 -29.97158,6.78236 -44.47292,14.08147 -5.00602,2.48687 -5.2321,3.35889 -2.61605,9.46301 1.90552,4.45698 2.80984,5.74886 4.10171,5.74886 0.48446,0 3.97253,-1.61485 7.78357,-3.61726 22.83395,-11.85298 43.31022,-15.9224 62.97907,-12.53122 14.9535,2.58376 25.5146,10.01206 29.6163,20.79924 1.1627,3.06821 1.2596,4.00483 1.4534,13.17716 l 0.2261,9.85058 -1.3888,-0.29068 c -0.7751,-0.16148 -3.8111,-0.83972 -6.7824,-1.51795 -6.6531,-1.51796 -17.44033,-3.35889 -24.57796,-4.19861 -7.97735,-0.93661 -27.93687,-0.80742 -36.108,0.22608 -27.6462,3.55266 -43.73008,14.21066 -47.50883,31.45724 -1.16269,5.36129 -0.77513,13.04797 0.96891,18.50615 1.45336,4.55388 4.90914,10.07666 8.20343,13.11257 7.20222,6.65317 18.76453,11.17475 32.65222,12.88649 7.16993,0.87201 22.18801,0.87201 29.64861,0 16.08389,-1.87323 30.16532,-6.55629 40.62962,-13.50013 1.8086,-1.22729 3.5203,-2.1962 3.7464,-2.1962 0.2261,0 0.3876,2.00242 0.3876,4.48928 0,2.48687 0.2583,5.23211 0.549,6.07183 0.9366,2.68065 2.1316,2.93902 13.1772,2.93902 5.4582,0 10.4642,-0.19378 11.1101,-0.45215 2.8099,-1.0658 2.713,-0.0646 2.713,-39.82215 0,-23.22152 -0.1938,-37.81974 -0.5168,-40.17742 -2.4223,-17.60184 -11.9176,-30.71441 -27.194,-37.69055 -7.0731,-3.1974 -16.9236,-5.84575 -26.64501,-7.07304 -3.52037,-0.45215 -9.68909,-0.64594 -15.9224,-0.58134 z m -231.31082,2.55146 -1.42107,1.42106 -1.45336,1.42107 0.0323,58.3929 c 0,62.7207 -0.0969,59.94316 2.45457,61.33193 1.55025,0.87202 20.57316,0.96891 22.41409,0.12919 2.58375,-1.19499 2.64835,-1.64715 2.64835,-22.12342 v -18.86143 h 29.39023 l 18.53845,15.08268 c 29.06727,23.67367 29.51942,24.02894 31.81251,25.15934 2.0993,1.0335 2.80983,1.06579 17.0205,1.19498 14.40444,0.12919 14.88889,0.12919 15.82551,-0.83972 1.16269,-1.16269 1.25958,-2.77754 0.29067,-4.1986 -0.41986,-0.58135 -11.40083,-9.10775 -24.4165,-18.99061 -13.01568,-9.85058 -23.77056,-18.1186 -23.89975,-18.34468 -0.16149,-0.22608 1.32417,-0.54905 3.22969,-0.74283 18.15089,-1.74403 33.16898,-10.72259 39.53148,-23.70597 2.55146,-5.2321 3.39118,-8.62328 3.71415,-15.24416 0.51675,-11.01326 -2.55146,-19.76574 -9.4953,-27.19404 -4.77995,-5.10292 -13.40324,-9.91517 -22.15572,-12.30514 l -4.71535,-1.29188 -99.34545,-0.29067 z m -696.3224287,0.0323 -0.77189702,1.16269 c -0.665318,1.0012 -0.07428,2.77753 -0.07428,2.77753 0.37464502,0.87202 67.21319872,117.33486 68.50507872,118.20687 1.61485,1.0981 1.74403,1.1304 14.79846,0.96891 l 13.18685,-0.12919 1.17561,-1.19498 c 1.714967,-1.74404 67.943107,-117.72242 67.943107,-118.982 0,-0.58134 -0.35526,-1.45336 -0.80742,-1.93782 -0.71053,-0.77512 -1.64715,-0.87201 -8.43274,-0.87201 h -7.65438 l -1.39199,1.32417 c -0.76544,0.74283 -58.799847,102.995 -59.290757,102.47825 0,0 -57.704975,-102.89811 -58.447805,-103.22108 L 1.5881613,633.73356 z m 190.8265787,0 -1.19499,1.19498 -1.19499,1.16269 v 118.04539 l 1.42107,1.42106 1.42107,1.38877 h 22.38179 l 1.42107,-1.38877 1.38876,-1.42106 v -117.8516 l -1.25958,-1.29188 -1.25958,-1.25958 h -23.12462 z m 530.44525,12.78959 h 29.93928 c 27.16174,0 30.26225,0.0969 33.07209,0.87202 9.17233,2.51916 15.63173,9.68909 17.73103,19.66885 1.0658,5.03832 0.67823,12.01447 -1.00121,17.24657 -2.87443,9.07545 -8.88166,14.63053 -18.50615,17.11739 -3.39119,0.87202 -5.55508,0.93661 -32.55534,0.93661 h -28.93807 l 0.25837,-55.84144 z m -132.32064,47.8318 c 7.36371,-0.0969 15.66403,0.51675 24.77177,1.77633 7.75127,1.0658 20.31479,3.61726 20.89613,4.1986 0.22608,0.22608 0.35527,7.00844 0.25838,15.11498 l -0.12919,14.69512 -3.13281,2.0993 c -6.68547,4.39239 -16.08388,8.78477 -23.54448,10.94867 -8.5264,2.48686 -14.14607,3.22969 -25.03014,3.39118 -5.58738,0.0969 -10.6903,0.0646 -11.36853,-0.0646 -15.53484,-2.80984 -23.02773,-9.5922 -24.64258,-22.25261 -1.00121,-7.97735 1.13039,-14.37215 6.55628,-19.44277 7.20222,-6.75006 19.1198,-10.23813 35.36517,-10.46421 z m 336.72809,0 c 10.23814,-0.0646 21.99423,1.16269 34.94528,3.68185 4.0695,0.80742 7.9451,1.67944 8.591,1.90552 l 1.195,0.45216 -0.1292,14.8566 -0.1292,14.8889 -3.3911,2.29308 c -3.908,2.61606 -12.499,6.97614 -17.4081,8.81707 -5.19982,1.97012 -13.69392,4.03712 -19.83034,4.84455 -5.97494,0.77512 -19.53966,0.87201 -23.70597,0.19378 -7.23451,-1.22729 -14.33985,-4.71536 -17.82792,-8.81707 -6.49169,-7.55749 -7.52519,-21.316 -2.16389,-29.09956 6.26561,-9.10775 20.31478,-13.8877 39.85444,-14.01688 z"
     style="fill:#47143d;fill-opacity:1"
     inkscape:connector-curvature="0" />
  <path
     id="path2444"
     d="m 499.86564,0.5 -1.93782,1.3597 c -7.97735,5.52278 -27.32323,23.67367 -38.36879,35.98851 -11.04556,12.31806 -21.70355,25.92476 -30.68211,39.14391 -2.42227,3.58496 -4.68306,6.65317 -5.00602,6.82758 -0.32297,0.17117 -4.39239,-0.4134 -9.04315,-1.29834 -28.93808,-5.51309 -60.45991,-7.69637 -86.74963,-5.99755 -13.56473,0.87848 -18.92602,1.66007 -19.57196,2.85505 -0.77513,1.50181 -1.97012,13.89739 -2.38998,25.7213 -0.93661,24.65227 0.93661,50.37357 5.55508,76.05611 0.96891,5.2967 1.87322,10.39962 2.00241,11.33623 0.25838,1.67945 0.25838,1.71174 -5.45818,5.55508 -22.83395,15.40565 -45.47412,34.78383 -63.26975,54.22659 -5.45818,5.94264 -13.11256,15.27647 -13.85539,16.89131 -0.45216,0.90432 -0.0646,1.58255 2.38997,4.84455 16.43915,21.50977 46.766,49.05908 74.15382,67.33916 3.39118,2.26078 6.23331,4.32779 6.3625,4.58617 0.0969,0.25837 -0.54905,4.29549 -1.42107,8.94625 -4.90913,25.83757 -6.78236,47.96099 -6.3625,74.57368 0.22608,13.98458 1.16269,27.90457 2.06701,30.8436 0.19378,0.58134 1.35647,0.90431 4.45698,1.32417 27.87228,3.68185 68.56644,1.77633 101.83231,-4.77995 4.00482,-0.80742 7.81586,-1.42106 8.4618,-1.42106 1.03351,0 1.90552,1.0012 5.329,6.13642 7.94505,11.91758 20.37938,27.90457 30.64982,39.49918 12.91878,14.59822 38.07811,37.94892 40.85565,37.94892 0.41986,0 2.61605,-1.45336 4.87684,-3.22969 6.87925,-5.42589 14.30755,-12.20825 23.93205,-21.99423 16.43915,-16.63293 30.42373,-33.75032 43.14873,-52.74093 1.93782,-2.87443 3.84334,-5.329 4.23091,-5.49049 0.38756,-0.12918 4.1663,0.41986 8.3972,1.22729 26.45121,5.16751 56.19671,7.52519 81.38834,6.42709 14.72741,-0.64594 23.93205,-1.64714 24.73947,-2.74524 1.32418,-1.74403 2.61605,-19.57196 2.61605,-36.46326 0,-24.06124 -2.13159,-46.66911 -6.52398,-69.01861 -0.90432,-4.58616 -1.55025,-8.62328 -1.42107,-8.94625 0.12919,-0.32297 2.55146,-2.09931 5.3936,-3.97253 17.79562,-11.6915 36.33407,-26.80648 52.74093,-42.98725 12.95108,-12.7573 25.67608,-27.22634 25.67608,-29.16416 0,-1.61484 -11.04556,-14.56592 -21.44518,-25.12703 -15.98699,-16.27767 -36.62475,-33.39506 -55.74455,-46.21695 -4.77995,-3.22969 -6.4271,-4.55387 -6.4271,-5.329 0,-0.54904 0.67824,-4.26319 1.45337,-8.23572 4.97373,-25.26591 7.396,-55.89635 6.2979,-80.08354 -0.64593,-14.46581 -1.64714,-24.45849 -2.61605,-25.74714 -1.38877,-1.87968 -23.70597,-3.37503 -44.50521,-2.99069 -21.31599,0.39079 -38.59486,2.10576 -59.23262,5.88773 -5.03833,0.93015 -9.65679,1.69559 -10.27043,1.69236 -0.80743,-0.003 -1.90552,-1.26927 -4.68306,-5.40651 C 557.41882,56.81298 539.5586,35.62294 521.5046,18.59276 514.75454,12.21411 504.96856,3.87503 501.77116,1.76927 L 499.86564,0.5 z m 0.0646,15.11821 c 1.80863,0 22.44639,19.74959 32.58763,31.16979 13.04798,14.6822 30.48833,37.71962 30.10077,39.7511 -0.12919,0.57489 -2.1316,1.35324 -7.396,2.85182 -4.00483,1.13685 -7.58979,2.0767 -8.00965,2.08639 -0.45216,0.01 -1.38877,-0.87848 -2.1316,-1.97981 -2.48686,-3.73999 -11.94987,-16.05159 -16.82671,-21.89734 -9.07545,-10.80656 -26.45121,-27.8206 -28.42133,-27.8206 -1.0658,0 -8.62329,6.81466 -16.24537,14.63376 -9.5599,9.83765 -21.47748,24.36482 -28.58281,34.78382 -1.90552,2.80338 -2.0347,2.80984 -10.20584,0.42309 -7.55748,-2.20911 -7.75127,-2.28339 -7.75127,-3.20386 0,-0.89785 3.55267,-6.05568 10.91638,-15.94824 13.59702,-18.20256 29.81009,-35.90453 45.86168,-50.1378 2.93902,-2.59021 5.68426,-4.71212 6.10412,-4.71212 z m -0.0969,39.62837 c 0.87202,0 9.72139,8.78477 15.85781,15.75122 7.52519,8.51348 18.50616,22.80489 18.50616,24.05801 0,0.40694 -0.96891,1.05934 -2.29309,1.54056 -6.3948,2.32861 -20.86383,8.17113 -26.12824,10.55465 -3.29429,1.48566 -6.10412,2.69034 -6.2979,2.67419 -0.16149,-0.0162 -1.93782,-0.80097 -3.94023,-1.73758 -5.49049,-2.58053 -17.60185,-7.57687 -23.93205,-9.88933 -3.10051,-1.13685 -5.74886,-2.36091 -5.91034,-2.7194 -0.64594,-1.72143 15.37335,-21.68095 27.35552,-34.05714 3.29429,-3.39441 6.3625,-6.17518 6.78236,-6.17518 z M 651.1123,87.74701 c 2.51916,0 5.00603,0.0323 7.52519,0.0904 15.43795,0.35526 20.70235,0.71376 21.47748,1.49535 0.83972,0.84941 1.55025,13.57764 1.55025,28.01438 -0.0323,71.302 -21.83274,140.99883 -61.33192,196.16204 l -4.10172,5.74886 1.0335,8.26802 c 1.64715,13.27405 2.1316,22.70476 1.84093,36.0434 -0.29067,13.46784 -1.0658,22.60788 -2.00241,23.60908 -1.0658,1.0981 -13.14486,2.00241 -27.80768,2.03471 -14.27526,0.0646 -22.18801,-0.38756 -33.33046,-1.93782 -4.36009,-0.61364 -6.78236,-0.74283 -7.36371,-0.45215 -0.48445,0.25837 -2.84213,1.90552 -5.23211,3.61725 -7.3637,5.29671 -12.40203,8.42951 -13.59702,8.39721 -0.61364,0 -3.42347,-1.0658 -6.20101,-2.32538 -7.20222,-3.29429 -10.17354,-4.84454 -10.17354,-5.36129 0,-0.58135 0.0969,-0.64594 10.88407,-7.71898 4.77995,-3.1328 11.46542,-7.78356 14.8566,-10.36732 3.74645,-2.80983 6.62088,-4.65076 7.33141,-4.65076 0.61364,0 3.81104,0.54905 7.10533,1.22728 13.50013,2.74524 31.58643,4.16631 43.05185,3.39118 4.06941,-0.29067 5.23211,-0.51675 5.45818,-1.13039 0.16149,-0.41986 0.41986,-4.2632 0.58135,-8.5264 0.41986,-11.78839 -0.83972,-26.03135 -3.55267,-39.43458 -0.67823,-3.32659 -1.22728,-6.4594 -1.22728,-7.00844 0,-0.51676 2.35768,-4.13401 5.2644,-7.97735 17.24658,-23.06003 32.03859,-50.15718 41.95375,-76.83447 10.43192,-28.00146 16.72983,-56.32589 19.1198,-85.77749 0.67824,-8.47472 0.83972,-28.36965 0.25838,-35.15847 -0.32297,-4.10817 -0.51675,-4.79933 -1.42107,-5.29993 -1.48566,-0.8268 -28.6474,-1.13039 -38.07811,-0.42309 -30.58522,2.28339 -60.62139,9.04638 -90.65757,20.40199 l -3.03591,1.14654 -2.03471,-1.17561 c -1.13039,-0.64917 -4.45698,-2.545 -7.396,-4.1986 -6.4271,-3.63987 -7.88046,-4.74766 -7.23452,-5.43881 0.74283,-0.74283 15.05038,-6.40449 24.02894,-9.49854 36.39867,-12.51507 74.70286,-18.96154 112.45801,-18.95185 z m -304.65722,0.1195 c 10.43192,-0.006 21.44519,0.28744 28.25984,0.90754 46.95978,4.27289 86.87882,15.27323 125.79666,34.67401 16.05159,8.00319 28.71199,15.68664 46.7337,28.34705 l 2.16389,1.52441 4.58617,-0.71053 c 14.8889,-2.27694 39.3054,-3.07467 53.41917,-1.7505 8.20343,0.7719 9.36612,1.00444 9.88287,1.94751 1.45336,2.72586 2.45457,30.61106 1.51796,43.30376 -0.29067,4.2632 -1.00121,11.46542 -1.58255,16.01929 l -1.00121,8.30032 2.87443,4.03712 c 5.68427,7.94505 9.94746,14.59823 9.91517,15.59943 0,0.54905 -1.58255,4.42469 -3.48807,8.62329 -2.58376,5.55508 -3.74645,7.58979 -4.36009,7.58979 -0.51675,0 -1.58255,-1.22729 -2.84214,-3.32659 -3.00361,-5.10292 -10.75488,-16.47145 -15.47024,-22.70476 -2.32538,-3.10051 -4.36009,-5.87805 -4.55387,-6.20102 -0.19378,-0.32297 0.29067,-3.90793 1.0981,-7.97735 1.97011,-10.07665 2.93902,-17.95711 3.39118,-27.5493 0.38756,-7.84816 -0.0323,-20.37938 -0.67824,-21.05762 -0.19378,-0.19378 -6.55628,-0.32297 -14.17836,-0.32297 -15.11498,0 -20.54087,0.48446 -34.0733,3.1651 -3.94022,0.77513 -7.29911,1.42107 -7.52519,1.42107 -0.19378,0 -3.29429,-2.22849 -6.84695,-4.90914 -54.03281,-40.64572 -123.40668,-63.57979 -187.9683,-62.12643 -6.78236,0.1518 -13.08027,0.47154 -14.01688,0.69439 -1.48566,0.36172 -1.71174,0.62333 -2.1316,2.55469 -0.80743,3.96606 -0.58135,33.14959 0.35526,42.51248 2.71295,27.05516 8.68789,53.76475 17.24658,77.08315 1.35647,3.71415 2.80984,7.65438 3.1974,8.78478 l 0.71053,2.00241 -3.42348,5.91034 c -1.90552,3.26199 -3.97252,6.97614 -4.65076,8.26802 -1.74403,3.45578 -2.64835,3.1974 -4.55387,-1.42106 -14.53363,-34.88072 -23.22151,-71.98992 -26.09594,-111.45681 -0.64594,-9.15942 -0.67824,-35.87546 0,-43.78176 0.35527,-4.46989 0.67823,-6.18486 1.25958,-6.59826 1.16269,-0.88171 13.62932,-1.3694 27.03255,-1.37585 z m 4.71536,28.27275 c 1.93782,-0.01 4.81225,0.0452 9.26923,0.1518 29.48712,0.69438 57.10102,5.49371 85.81302,14.90505 7.3637,2.41904 9.07544,3.24907 8.52639,4.15338 -0.16148,0.25192 -1.93781,1.60193 -3.97252,3.00362 l -3.68185,2.55469 -4.19861,-0.54582 c -10.81948,-1.41137 -16.34226,-1.7182 -31.23116,-1.73757 -9.97976,-0.01 -18.21548,0.21962 -21.99423,0.6201 -7.55749,0.79773 -16.9882,2.39643 -17.56954,2.96163 -0.61365,0.63625 -1.61485,5.72302 -2.58376,13.31926 -1.22728,9.57928 -1.22728,43.26501 0,52.85721 1.16269,9.20463 1.19499,9.04315 -1.61485,13.04797 -1.32417,1.87322 -2.61605,3.45577 -2.87443,3.45577 -0.25837,0 -0.64594,-0.38756 -0.90431,-0.87201 -1.25958,-2.35768 -6.65318,-20.1856 -8.97856,-29.68091 -5.61967,-22.70476 -8.23572,-42.00865 -8.81707,-64.92012 -0.29067,-10.92283 -0.25837,-11.65597 0.58135,-12.50538 0.54905,-0.5329 1.0335,-0.75252 4.2309,-0.76867 z m 291.48005,0.48123 c 5.55508,0.006 10.01206,0.18732 10.23814,0.54582 0.48445,0.81388 0.29067,19.7399 -0.29067,27.10683 -2.00241,25.25623 -6.58858,48.18707 -14.30756,71.95763 -1.42106,4.42468 -2.90672,8.30032 -3.26199,8.59099 -0.48445,0.38756 -0.87202,0.25838 -1.58255,-0.54905 -0.54905,-0.58134 -1.90552,-2.42227 -3.03591,-4.03712 l -2.00241,-2.93902 1.0658,-8.91396 c 1.48566,-12.24055 1.61484,-41.17863 0.25837,-52.37275 -1.0012,-8.16467 -1.93782,-13.18039 -2.58376,-13.83602 -0.64594,-0.62656 -7.3637,-1.73757 -16.11618,-2.67096 -10.46421,-1.1207 -34.52545,-1.09809 -45.40952,0.0452 -14.98579,1.56317 -13.30635,1.67621 -17.18198,-1.14977 -1.84093,-1.35325 -3.35889,-2.83245 -3.35889,-3.27491 0,-0.60396 1.55026,-1.33387 6.07183,-2.8712 23.44759,-7.9386 49.38205,-13.19331 74.63827,-15.11821 4.65076,-0.35204 11.30394,-0.51675 16.85901,-0.51352 z m -173.0148,23.68013 c 1.64714,0 16.82671,7.17638 17.08509,8.0807 0.0969,0.32297 -1.93782,1.9475 -4.55387,3.6108 -8.00965,5.09646 -15.08268,9.94746 -21.76815,14.95349 -3.77875,2.84213 -6.81466,4.77995 -7.4929,4.77995 -0.61364,0 -4.36009,-0.64594 -8.36491,-1.42107 -12.14366,-2.38997 -19.92722,-3.1328 -33.10438,-3.1328 -7.68668,0 -12.27285,0.19378 -13.11257,0.54905 -1.22728,0.51675 -1.29188,0.74283 -1.64714,5.78115 -0.77513,11.49772 0.64593,29.58402 3.39118,43.08414 0.67823,3.29429 1.22728,6.4271 1.22728,6.94385 0,0.48446 -1.97011,3.58496 -4.42468,6.81466 -18.47386,24.70717 -33.78262,53.32228 -44.34373,82.874 -9.20463,25.83756 -15.27646,54.54956 -17.44035,82.45413 -0.51676,6.75007 -0.58135,31.10197 -0.0646,35.81733 l 0.29067,2.87443 2.90673,0.35527 c 5.13522,0.58134 22.51098,0.80742 30.19766,0.35526 31.52183,-1.80863 62.94677,-8.4618 92.91835,-19.63655 l 7.13763,-2.64835 7.84816,4.45698 c 4.32779,2.45457 8.00964,4.71536 8.20342,5.00603 0.58135,0.90431 -0.61364,1.55025 -8.81707,4.81225 -46.28154,18.28007 -97.76289,26.83877 -146.30522,24.3842 -4.58617,-0.22608 -8.84937,-0.61364 -9.49531,-0.87202 -1.55025,-0.58134 -1.61484,-1.55025 -2.0347,-21.02532 -0.51676,-26.5481 1.42106,-48.63922 6.62087,-74.83205 9.49531,-47.99328 28.61511,-92.72457 55.61537,-130.22134 l 2.87443,-3.97253 -0.74283,-5.19981 c -1.22729,-8.39721 -1.71174,-13.7585 -2.1962,-24.02893 -0.67823,-14.63053 0.64594,-37.65503 2.22849,-38.97274 1.51796,-1.26604 12.30514,-2.01533 29.16416,-2.02502 16.56834,-0.01 18.89372,0.13887 34.36396,2.14451 l 4.65076,0.60396 3.32659,-2.44488 c 5.87805,-4.31488 15.11498,-10.30273 15.85781,-10.30273 z m 30.39143,14.98256 c 0.93662,0 11.53002,6.39802 19.66885,11.85621 7.23452,4.87684 11.6915,8.13883 18.99061,13.91999 4.87684,3.84334 3.94023,3.71415 13.14487,1.55025 7.94505,-1.84092 21.05761,-3.61726 29.87468,-4.03712 8.5264,-0.41986 9.39842,-0.35526 9.6245,0.74283 0.0646,0.41986 0,4.2632 -0.19379,8.5587 -0.45215,11.36853 -1.42106,18.0863 -5.03832,34.88071 l -0.87202,3.94023 3.42348,4.2955 c 4.71536,5.94264 9.5276,12.53122 13.69391,18.76453 5.03833,7.55749 12.07906,19.1521 12.07906,19.95952 0,0.90432 -5.52278,10.27044 -10.52881,17.79563 -4.97373,7.55748 -9.36611,13.59702 -14.75971,20.44397 l -4.32779,5.52278 1.48566,6.33021 c 2.61605,11.01326 4.10171,21.67125 4.74765,33.71802 0.25838,5.07062 0.19379,6.81466 -0.29067,7.36371 -1.64714,2.00241 -24.51339,-0.22608 -40.50038,-3.90794 l -7.39601,-1.67944 -4.1986,3.32659 c -6.65318,5.2644 -13.37094,10.17354 -20.15331,14.66282 -7.68667,5.10292 -17.56954,11.07786 -18.31237,11.04556 -0.29067,0 -0.96891,-0.25838 -1.51796,-0.54905 -10.20584,-5.55508 -27.80768,-17.44036 -37.59366,-25.32081 -2.0993,-1.71174 -4.2632,-3.10051 -4.77995,-3.10051 -0.51675,0 -2.61605,0.41986 -4.65076,0.93661 -5.00603,1.29188 -15.69632,3.1974 -21.54207,3.87563 -7.23452,0.87202 -19.73344,1.42107 -20.70235,0.90432 -0.74283,-0.38756 -0.83972,-1.19499 -0.83972,-6.10413 0,-9.59219 1.61484,-22.15571 4.39238,-34.59004 0.77513,-3.42348 1.38877,-6.58858 1.38877,-7.04074 0,-0.45215 -1.64714,-2.87443 -3.64955,-5.39359 -8.84937,-11.04556 -25.35312,-35.91422 -25.35312,-38.14271 0,-0.90431 6.45939,-11.59461 11.82069,-19.57195 4.42468,-6.58858 10.04435,-14.24296 15.27646,-20.83154 l 1.93782,-2.48687 -0.93661,-3.81104 c -2.74524,-10.78718 -4.71536,-24.31961 -5.19981,-35.62355 -0.25838,-5.78115 -0.19378,-7.68667 0.29067,-8.26802 1.64714,-1.97011 24.61028,0.25838 40.53268,3.90794 l 7.39601,1.71173 2.51916,-2.00241 c 5.94264,-4.74765 14.46904,-10.98096 21.02532,-15.40565 8.4618,-5.68426 19.0875,-12.14688 20.02411,-12.14688 z m -183.57591,51.71066 c 0.41986,0 0.93661,0.80742 1.25958,2.067 0.32297,1.1304 1.29188,4.61847 2.19619,7.75127 0.90432,3.16511 1.64715,5.91035 1.64715,6.10413 0,0.22608 -2.68065,2.29308 -5.91034,4.65076 -6.68547,4.77995 -15.63173,11.85298 -21.38059,16.85901 -6.10413,5.2967 -18.92602,18.02171 -22.05882,21.92964 l -2.84214,3.55266 2.29309,2.93903 c 3.1328,4.00482 14.59822,15.50254 21.38058,21.44518 7.26682,6.3625 17.40807,14.37214 23.31841,18.44156 2.58376,1.77633 4.81225,3.68185 4.97373,4.19861 0.32297,1.13039 -3.42348,14.69511 -4.32779,15.59943 -0.48446,0.51675 -1.35647,0.0969 -4.65076,-2.09931 -14.40445,-9.68908 -32.36156,-24.51339 -46.31384,-38.1427 -10.01206,-9.78598 -20.34709,-21.18681 -20.34709,-22.44639 0,-2.19619 22.93084,-25.64379 35.94652,-36.75394 13.08027,-11.14245 33.00749,-26.09594 34.81612,-26.09594 z m 366.50589,0 c 0.90431,0.0323 12.82189,8.4295 21.67126,15.30876 13.72621,10.6257 29.84239,25.28852 40.20971,36.56015 8.26802,9.01086 9.23693,10.17355 9.23693,11.07786 0,1.19499 -6.75006,8.68788 -17.56954,19.44277 -14.08148,14.01688 -27.6785,25.4823 -44.27913,37.36758 -7.81587,5.58738 -9.23693,6.45939 -10.01206,5.97494 -0.45216,-0.29067 -3.81104,-11.59461 -4.36009,-14.66282 -0.19378,-1.13039 0.12919,-1.55025 2.35768,-3.13281 17.79562,-12.6604 34.20248,-26.74188 44.63439,-38.33649 2.64836,-2.93902 5.00603,-5.68426 5.23211,-6.07182 0.54905,-1.00121 -1.51796,-3.52037 -9.78598,-11.98218 -10.69029,-10.91637 -23.67367,-21.96193 -36.20489,-30.779 -3.1974,-2.26078 -5.94264,-4.39238 -6.10412,-4.71535 -0.12919,-0.35527 0.48445,-3.1974 1.38877,-6.29791 0.90431,-3.10051 1.87322,-6.55628 2.19619,-7.68668 0.38756,-1.42106 0.80742,-2.067 1.38877,-2.067 z m -358.07638,28.80889 c 0.93661,-0.0646 1.42106,1.09809 2.45457,4.06941 1.90552,5.39359 6.62087,17.0528 9.43071,23.25381 1.48566,3.262 2.68064,6.3625 2.68064,6.87925 0,0.54905 -1.51795,4.36009 -3.32658,8.4941 -2.84213,6.3948 -4.48928,10.52881 -9.46301,23.70597 -0.38756,0.96891 -1.00121,1.74404 -1.55026,1.80863 -0.51675,0.0646 -3.32658,-1.71174 -6.68547,-4.2309 -13.27405,-9.97976 -33.10438,-27.93687 -33.10438,-29.97158 0,-2.26078 25.15933,-24.44879 37.10921,-32.71682 1.13039,-0.77512 1.87322,-1.25958 2.45457,-1.29187 z m 349.3885,0 c 0.80742,-0.12919 1.93781,0.61364 4.00482,2.16389 15.14727,11.11016 36.17259,29.64861 36.17259,31.8448 0,2.00241 -18.86142,19.02291 -32.13547,29.00267 -7.4606,5.58738 -8.13883,6.00724 -8.81707,5.16752 -0.29067,-0.32297 -1.51796,-3.39119 -2.77754,-6.84696 -1.25958,-3.45577 -4.10171,-10.52881 -6.3625,-15.72862 -2.26079,-5.16751 -4.2309,-10.07665 -4.32779,-10.85178 -0.19378,-1.0658 0.51675,-3.1328 2.61605,-7.75127 2.58376,-5.68426 7.16993,-17.05279 9.65679,-23.89975 0.71054,-1.97011 1.16269,-2.97132 1.97012,-3.1005 z m -295.67866,47.54112 c 0.48445,0 1.58255,1.22728 2.68065,3.03591 3.64955,5.94264 10.30273,15.69632 15.40565,22.51098 l 5.19981,6.97615 -1.48566,7.58978 c -2.71295,13.8554 -3.16511,18.76453 -3.16511,33.91181 -0.0323,10.78718 0.0969,14.01688 0.58135,14.50133 0.48445,0.48446 3.81104,0.64594 14.75971,0.64594 15.37335,0 20.02411,-0.45216 34.0087,-3.22969 l 7.3637,-1.42107 6.78237,5.07062 c 23.83515,17.82792 51.83661,32.9106 80.29023,43.21333 25.03015,9.10775 51.77203,15.11498 79.19215,17.79563 9.20463,0.90431 34.88071,1.22728 40.69417,0.51675 2.93902,-0.35527 3.22969,-0.48446 3.52036,-1.67944 0.64594,-2.74524 0.87202,-26.06365 0.29068,-34.17019 -1.45337,-21.25139 -4.90914,-42.14753 -10.23814,-61.84867 -2.19619,-8.20343 -7.36371,-24.12583 -9.85057,-30.52063 -0.93661,-2.35768 -1.67944,-4.55387 -1.67944,-4.90914 0,-0.77512 8.59099,-15.9224 9.26922,-16.34226 0.80743,-0.51675 1.32418,0.45216 4.3278,7.84816 13.69391,34.10559 22.12341,72.11911 24.57798,111.10154 0.93661,15.05039 0.32297,45.05426 -0.96891,46.34614 -1.16269,1.16269 -29.39023,1.97011 -43.01955,1.22728 -24.44879,-1.32417 -47.7349,-4.84454 -71.27938,-10.85178 -39.95134,-10.14124 -75.70408,-26.35431 -108.45319,-49.18826 l -6.94385,-4.87684 -8.75247,1.0658 c -16.53605,2.00241 -30.32685,2.45456 -44.50521,1.51795 -8.75248,-0.58134 -14.21066,-1.29188 -15.01809,-1.93782 -1.48566,-1.25958 -2.77754,-24.67487 -2.1316,-39.11161 0.45216,-9.65679 1.45337,-20.05641 2.45457,-25.83757 l 0.51675,-2.87443 -2.067,-2.90672 c -7.07304,-10.17355 -10.59341,-15.53484 -10.59341,-16.27767 0,-0.45216 1.67945,-4.45698 3.71415,-8.84937 2.68065,-5.81345 3.94023,-8.04194 4.52158,-8.04194 z m 255.9534,31.52183 h 0.0969 c 0.90431,0.16149 1.90552,2.77754 5.23211,13.43554 8.26802,26.61269 12.82189,54.0974 13.53242,81.679 0.29067,10.81949 0.22608,11.91758 -0.51675,12.69271 -0.74283,0.71053 -1.80863,0.80742 -8.42951,0.74283 -4.1663,-0.0646 -8.75247,-0.16149 -10.23813,-0.25838 -27.12945,-1.51795 -53.90363,-6.3625 -78.28783,-14.24295 -8.94626,-2.90673 -11.11015,-3.77875 -11.11015,-4.48928 0,-0.38757 1.58255,-1.80863 3.52036,-3.1651 l 3.48808,-2.48687 3.1328,0.25838 c 1.74404,0.16148 6.62088,0.58134 10.88408,1.0012 4.26319,0.38757 11.53001,0.83972 16.18077,1.00121 17.34347,0.61364 44.21454,-1.80863 45.44182,-4.10172 0.64594,-1.22728 2.29309,-13.24175 2.87443,-21.02532 1.03351,-13.8231 0.51675,-33.36276 -1.22728,-47.25045 l -0.77513,-6.13642 2.77754,-3.90793 c 1.71174,-2.42227 2.84213,-3.68186 3.42348,-3.74645 z m -269.55042,0.38756 c 1.29188,0 5.36129,6.13643 5.36129,8.04195 0,0.83972 -0.35526,4.42468 -0.80742,7.97735 -1.0335,8.20342 -1.22728,43.21333 -0.25838,50.9 0.87202,6.94385 2.06701,13.8877 2.58376,14.82431 0.90432,1.74403 17.08509,3.71415 34.0087,4.13401 12.04676,0.29067 23.25381,-0.22608 34.94531,-1.61485 l 6.45939,-0.77513 3.35888,2.32538 c 4.36009,3.00362 4.74766,3.48808 3.55267,4.36009 -0.48445,0.38757 -3.84334,1.64715 -7.4606,2.80984 -27.77538,9.04315 -53.61295,13.8231 -82.42184,15.24416 -10.43191,0.51676 -13.56472,0.54905 -16.18077,0.0969 l -1.67945,-0.32297 0.0323,-13.04797 c 0.12919,-27.03255 5.13522,-56.64886 14.53363,-85.42545 2.51917,-7.68668 3.29429,-9.52761 3.97253,-9.52761 z m 134.61372,114.52502 c 0.25838,0 4.71536,1.84093 9.91517,4.06942 5.19981,2.22849 12.49892,5.16751 16.21307,6.52398 7.81587,2.87443 8.17113,3.03592 8.36492,4.00483 0.16148,0.87201 -7.94506,11.75609 -15.17958,20.44397 -6.62087,7.91276 -17.92481,19.57196 -18.99061,19.57196 -0.41986,0 -3.06821,-2.32538 -5.87804,-5.19981 -5.55508,-5.61967 -10.98097,-11.6592 -15.9224,-17.73103 -5.78116,-7.10533 -12.56352,-16.40686 -12.56352,-17.24658 0,-0.54905 0.77513,-1.0981 2.29308,-1.64714 6.87926,-2.51917 18.60305,-7.23452 24.51339,-9.81828 3.68186,-1.64714 6.94385,-2.97132 7.23452,-2.97132 z m 47.54113,18.21549 c 0.71053,0.0323 2.97132,0.54904 5.39359,1.22728 2.80983,0.77513 6.23331,1.71174 7.62208,2.0993 1.90552,0.54905 2.55146,0.93661 2.55146,1.61485 0,1.90552 -15.40565,22.51098 -26.70958,35.75273 -11.04556,12.95108 -33.91181,35.33288 -36.07571,35.33288 -0.45215,0 -3.1005,-2.00241 -5.87804,-4.45698 -15.59943,-13.8554 -31.39265,-31.13427 -45.15115,-49.41435 -7.75127,-10.36732 -11.94988,-16.56834 -11.75609,-17.47266 0.22607,-1.19498 15.11497,-5.36129 16.14847,-4.48927 0.38757,0.32297 1.97012,2.35768 3.45578,4.52157 3.90793,5.52278 10.14124,13.59702 15.56713,20.08871 7.78357,9.33382 26.03135,27.54931 27.6139,27.54931 0.77513,0 7.4606,-6.00724 13.46784,-12.07907 9.85057,-9.94746 19.53966,-21.47747 28.84118,-34.36396 2.26079,-3.13281 4.36009,-5.78116 4.68306,-5.87805 0.0323,-0.0323 0.0969,-0.0323 0.22608,-0.0323 z"
     inkscape:connector-curvature="0"
     style="fill:#b99750" />
</svg>
